<svg xmlns="http://www.w3.org/2000/svg" viewBox="0 0 512 512" role="img" aria-label="Gitea Kanban icon">
  <defs>
    <linearGradient id="bg" x1="68" y1="36" x2="428" y2="484" gradientUnits="userSpaceOnUse">
      <stop offset="0" stop-color="#13241b"/>
      <stop offset="0.55" stop-color="#0f1714"/>
      <stop offset="1" stop-color="#263a1f"/>
    </linearGradient>
    <linearGradient id="body" x1="88" y1="354" x2="424" y2="204" gradientUnits="userSpaceOnUse">
      <stop offset="0" stop-color="#74b830"/>
      <stop offset="0.38" stop-color="#3ddc84"/>
      <stop offset="0.72" stop-color="#3da9ff"/>
      <stop offset="1" stop-color="#a64dff"/>
    </linearGradient>
    <linearGradient id="belly" x1="150" y1="318" x2="340" y2="404" gradientUnits="userSpaceOnUse">
      <stop offset="0" stop-color="#ffffff" stop-opacity="0.08"/>
      <stop offset="1" stop-color="#ffffff" stop-opacity="0.76"/>
    </linearGradient>
    <filter id="shadow" x="-20%" y="-25%" width="145%" height="160%">
      <feDropShadow dx="0" dy="16" stdDeviation="14" flood-color="#000000" flood-opacity="0.34"/>
    </filter>
  </defs>

  <rect x="20" y="20" width="472" height="472" rx="108" fill="url(#bg)"/>
  <circle cx="352" cy="126" r="136" fill="#74b830" opacity="0.11"/>

  <g opacity="0.4" fill="none" stroke-linecap="round">
    <path d="M104 370V286c0-37 30-67 67-67h52" stroke="#74b830" stroke-width="10"/>
    <path d="M223 219h88c37 0 67-30 67-67v-34" stroke="#3da9ff" stroke-width="10"/>
    <circle cx="104" cy="370" r="15" fill="#74b830" stroke="none"/>
    <circle cx="223" cy="219" r="13" fill="#ffd23f" stroke="none"/>
    <circle cx="378" cy="118" r="15" fill="#3da9ff" stroke="none"/>
  </g>

  <g>
    <!-- 明确的跃起海豚剪影：头部在右、尾部在左下 -->
    <path d="M84 337c36-62 107-104 196-106 77-2 137 25 178 78-45 1-79 21-106 55-52 67-154 90-233 50-41-21-59-50-50-74 3-8 8-10 15-3Z" fill="#3ddc84"/>
    <path d="M87 355 31 276l65 31 55-58-13 99-51 7Z" fill="#ff8a3d"/>
    <path d="M234 238c20-59 68-75 88-27 25-31 64-18 76 36-53-19-108-22-164-9Z" fill="#ffd23f"/>
    <path d="M226 416c33 42 88 38 126 1-43 12-84 11-126-1Z" fill="#ff3b6b"/>
    <path d="M83 337c66 68 208 81 320-8-48 98-164 138-278 88-43-19-63-49-56-76 3-11 8-13 14-4Z" fill="#bdf5d5" opacity="0.72"/>
    <path d="M390 312c24 8 50 3 75-20-10 34-41 48-75 20Z" fill="#a64dff"/>
    <path d="M433 313c17 6 35 3 51-13-7 25-28 35-51 13Z" fill="#a64dff"/>
    <circle cx="371" cy="286" r="16" fill="#101827"/>
    <circle cx="378" cy="279" r="6" fill="#ffffff"/>
  </g>

  <rect x="20" y="20" width="472" height="472" rx="108" fill="none" stroke="#dff4d8" stroke-opacity="0.14" stroke-width="4"/>
</svg>
